<?xml version="1.0" encoding="utf-8"?>
<!-- Generator: Adobe Illustrator 27.7.0, SVG Export Plug-In . SVG Version: 6.00 Build 0)  -->
<svg version="1.1" id="レイヤー_1" xmlns="http://www.w3.org/2000/svg" xmlns:xlink="http://www.w3.org/1999/xlink" x="0px"
	 y="0px" width="1305.4px" height="1305.4px" viewBox="0 0 1305.4 1305.4" style="enable-background:new 0 0 1305.4 1305.4;"
	 xml:space="preserve">
<style type="text/css">
	.st0{fill:#FFFFFF;}
</style>
<g>
	<path class="st0" d="M664.7,186.8c-1.7-87.6-4.1-89-80.9-46.7c75-45.3,75-48.1,0-93.4C660.5,89,662.9,87.6,664.7,0
		c1.7,87.6,4.1,89,80.9,46.7c-75,45.3-75,48.1,0,93.4C668.8,97.8,666.4,99.2,664.7,186.8z"/>
	<path class="st0" d="M896.1,56.9l53.5,20.2l-0.7,2l-53.5-20.2l-56.2,148.9l-16.5-6.2l56.2-148.9l-53.6-20.2l0.7-2l53.6,20.2v-0.1
		L896.1,56.9L896.1,56.9z"/>
	<path class="st0" d="M1021,233.1l-41.8,58.5l-14.6-10.4c4.4-5.9,8.9-12.1,11.6-15.8l31.8-44.5c16.8-23.5,10.9-38.8-0.7-47.1
		c-11.7-8.4-23.2-8.8-40.4-3.5l-53.2,74.5l-14.3-10.2c4.4-6,9.1-12.4,11.7-16.2l93-130.1c1-1.4,1.9-2.6,2.6-3.8l14.3,10.2L968.6,168
		c18.6-5.6,34.6-5.6,49,4.7C1034.6,184.8,1042.2,203.4,1021,233.1z"/>
	<path class="st0" d="M1115.1,366.9c-17.9,4.9-38.4,6.5-56.6,1.2c-0.5-0.2-1.1-0.3-1.7-0.5c-11.1-3.6-21.2-9.7-29.3-19.4
		c-8.9-10.7-13.9-22.2-15-33.5c-1.8-17.5,5.3-34.6,20.3-47.1c25.4-21.2,66.3-17.4,88.1,4c0,0,5.8,5.8,8.4,10.1l0,0
		c2.2,3.4,5,8.3,6.5,14.3c0.1,0.4,0.2,0.7,0.3,1.1c0.1,0.4,0.2,0.9,0.3,1.4c0.3,1.6,0.5,3.2,0.6,4.7c0,0.1,0,0.1,0,0.1
		c0.1,3.2-0.2,6.1-0.9,8.8c0,0.1,0,0.1-0.1,0.2c-1.5,6-4.8,12.3-11.2,18.6c-0.1,0.1-0.2,0.2-0.3,0.3l0,0c-1.6,1.5-8.8,7.1-17.2-3
		l-51.2-61.2c-2.5,1.7-5.1,3.5-7.6,5.6c-21.9,18.4-23.1,51.8-2.9,75.9c17.4,20.8,40.5,23.5,68.3,16.8L1115.1,366.9z M1057.4,266.2
		l42.4,50.6c2.4,2.9,6.7,3.3,9.6,0.9l0,0c7.1-6,10.9-11.9,12.7-17.3c0-0.1,0-0.1,0.1-0.2c1.7-5.2,1.6-9.9,0.7-13.9
		c-0.1-0.2-0.1-0.4-0.2-0.7c-0.2-0.7-0.4-1.3-0.6-1.9c-1.2-3.3-3.1-6.8-5.9-10.2c-11.8-14.1-28.1-19.8-46.2-13.5
		c-0.1,0-0.2,0.1-0.4,0.1c-1.5,0.5-3,1.1-4.5,1.8l0,0c-2.5,1.1-5.3,2.3-6.3,3.2l0,0C1058.4,265.6,1057.9,265.9,1057.4,266.2z"/>
	<path class="st0" d="M1245.5,533.5c-27.4,8.3-53-9.8-63.2-43.7c-2.9-10.2-6-20.5-9-30.7l-66,19.9l-5.1-16.9l154.5-46.5l13.9,46.2
		l-0.1-0.1v0.1C1281.4,497.8,1273.1,525.1,1245.5,533.5z M1239.9,514.2c27-8.1,36-26.6,27.4-55.2l-7.8-25.9l-84,25.3l7.7,25.7
		C1191.6,511.8,1213.2,522.3,1239.9,514.2z"/>
	<path class="st0" d="M1254.9,674.7l-117.1,4.2l-0.6-17.7l23.1-0.8c-16-11.2-25.9-24.1-26.5-41.9c-0.7-20.9,9.3-38.3,45.9-39.6
		l71.9-2.6l0.6,17.4l-74.2,2.6c-28.8,1.3-37.4,15.3-36.9,29.5c0.5,14.6,7.1,23.9,22.4,34.3l90.9-3.2L1254.9,674.7z"/>
	<path class="st0" d="M1237.1,790.4l-16.5-3c2.5-6.5,6-14.4,7.7-23.7c2.9-15.8-11.3-27.8-46.8-34.3l-12.4-2.3
		c-23.8-4.3-38.3-6.7-38.3-6.7l3.1-17.2c0,0,26.1,4.5,36,6.3c0.5,0.1,0.7,0.1,0.7,0.1c0.1,0,1.6,0.3,1.6,0.3s1.3,0.3,3.1,0.8
		l73.8,13.4l-3.1,16.8l-29.6-5.4c15.3,16.2,23.9,36.5,21,52.4C1237.4,788.8,1237.2,789.6,1237.1,790.4z"/>
	<path class="st0" d="M1118.4,874c-19.3-7.6-26.6-30.1-17.9-52c8.8-22.3,18.5-31,24.4-38.6c0.1-0.2,0.3-0.3,0.4-0.5l22.1,8.8
		c0,0-46.5,13.3-48.5,50.1c0.9,9.1,6.4,14.7,14,17.7c14.9,5.9,27.3-8.7,40-23.9c13.3-15.8,27.5-31.4,44.8-24.6
		c22.3,8.8,23.5,34.9,16.3,52.8c-7,17.5-11,22.8-17.7,34.2l0,0v0.1l-0.2,0.4l-0.1,0.1l-0.6,0.9l-0.3-0.1l0,0l-20.3-8.1
		c29.2-11.5,39.7-33.6,40-35.7c0-0.1,0-0.1,0-0.1c3.5-14.2,0.1-25.7-9.5-29.5c-14.7-5.8-27,8.8-40,23.7
		C1151.8,865.4,1137.7,881.6,1118.4,874z"/>
	<path class="st0" d="M1118.4,1025l-95.8-67.4l10.2-14.5l18.9,13.3c-6-18.6-6.1-34.8,4.2-49.4c12.1-17.1,30.6-24.9,60.5-3.8
		l58.9,41.4l-10,14.3l-60.8-42.8c-23.7-16.4-39-10.4-47.2,1.2c-8.4,12-8.8,23.4-2.9,40.9l74.4,52.4L1118.4,1025z"/>
	<path class="st0" d="M1003,975.2l82.5,83.1l-12.6,12.5l-82.5-83.1L1003,975.2z M1112.1,1080.2c4.7,4.8,4.9,12.5,0.1,17.3
		s-12.7,4.7-17.4,0c-4.8-4.8-4.6-12.5,0.2-17.3C1099.7,1075.4,1107.3,1075.4,1112.1,1080.2z"/>
	<path class="st0" d="M929.3,1056.4c0.7-11.1,4.3-21.7,12.6-28c12.4-9.4,23.7-5.7,37.2,12.1l50.4,66.6l20.6-15.6l0.8,1.1l0,0l0,0
		c-4.7,3.5-8.4,7.6-11.5,11.8c-13,18.7-4.8,37-4.8,37l-0.6,0.5l-17.6-23.2l-23.5,17.8l-0.8-1.1l23.5-17.8l-50-66
		c-10.1-13.3-19.7-17.2-27.5-11.3c-4.4,3.3-6.9,9-7.1,16.3L929.3,1056.4z"/>
	<path class="st0" d="M756.4,1173.9c-5.5-18.9-0.6-41.8,13-58.1c7.1-8.6,16.6-15.2,28.2-18.6c12.4-3.6,24.6-3.4,35.4,0.1
		c16.8,5.5,30.3,19.1,36.2,39.6c9.3,32.2-7.1,67.5-41.5,77.5C796.2,1223.6,766.3,1208.3,756.4,1173.9z M773.4,1165.1
		c8.1,27.9,31.8,53.5,56.4,46.4c26.2-7.6,31.5-32.6,22-65.3c-5.6-19.3-18.7-37.5-35-44.1c-7-2.9-14.5-3.6-22.3-1.3
		c-8.2,2.4-14.5,6.9-18.7,13.2C768,1125.6,767.2,1143.5,773.4,1165.1z"/>
	<path class="st0" d="M703.3,1236.2l-0.2-2l-25.4,2l-0.1-1.4l25.4-2l-0.7-9.1c-1.9-24.1-8.4-106.3-8.4-106.3l17.4-1.3
		c0,0,7.4,94,8.2,104c0,0.5,0.1,0.7,0.1,0.7c0,0.1,0.1,1.6,0.1,1.6s0,5.1-0.2,9.2l20.3-1.6l0.1,1.4l-20.4,1.6
		c-0.1,0.8-0.1,1.5-0.2,2.1c-4.4,36.3-33.3,68.4-58.6,70.3c-0.8,0.1-1.5,0.1-2.3,0.1l-1.3-16.7c6.9,0.8,15.5,2.1,24.8,1.4
		C698,1288.9,706,1272.2,703.3,1236.2z"/>
	<path class="st0" d="M488.7,1097.5c7.1-3.6,16.1-6.8,21.7-5.4c8.6,2.3,11.3,9.3,8.6,19.4c-1.4,5.4-3.7,12.2-5.4,16.8
		c7.4-8.6,34.2-26.6,52.9-21.6c18.2,4.8,26.2,19.2,22.6,33c-3.9,14.8-22,25.7-66.2,31c-0.7,0.1-1.5,0.2-2.2,0.3l-3.4,0.4
		c-0.4,0-0.8,0.1-1.1,0.1c-8.6,1.2-16.1,7.3-18.7,16.1c-0.1,0.2-0.2,0.5-0.2,0.7l-0.1,0.5c-0.1,0.4-0.2,0.9-0.3,1.3
		c0,0.1,0,0.2-0.1,0.2c-0.1,0.5-0.1,1-0.2,1.5c0,0.1,0,0.2,0,0.3l0,0c0,0.5-0.1,1-0.1,1.5c0,0.4,0,0.9,0,1.3c0.1,3.1,0.8,6.2,2.2,9
		c0.1,0.2,0.2,0.4,0.3,0.7c0.3,0.7,0.6,1.1,0.7,1.3c0,0.1,0.1,0.1,0.1,0.1s0,0.1,0.1,0.1c1.3,2.4,3,4.3,5.2,5.9
		c2.5,1.8,5.7,3.2,9.4,4.1c1.6,0.4,3.1,0.7,4.6,0.9c0.1,0,0.1,0,0.2,0c0.9,0.1,1.8,0.2,2.7,0.1c3.3,0,6.2-0.6,8.9-1.7
		c9.2-3.8,14.6-12.5,19.3-16.6l8.2,14.7c-7.9,2.6-22,5.8-35.3,5.4c-0.8,0-12.8-0.1-24.2-5.7h0.1c-13-6.2-21.1-16.8-19.5-26.3
		c0-0.1,0-0.1,0-0.2s0-0.1,0-0.2c1.8-13.3,20.9-15.1,20.9-15.1l20.5-3c36.8-5.2,46.4-9.9,50.9-26.5c3.2-12.1-5-24.7-18.8-28.3
		c-15.5-4.1-36.7,12.4-40.7,19.3c0,0-4.1,6-11.9,4.4s-5.1-9.6-5.1-9.6c1.4-4.3,2.5-8,3.1-10.4c3.4-12.8,3.5-19.5-1.3-20.8
		c-1.9-0.5-4.6,0.6-7.3,2.3L488.7,1097.5z"/>
	<path class="st0" d="M307.4,1020.9c16.3-21.2,45.3-21.6,67.4-4.6c20,15.3,28.4,25,38.8,38.5c1.4,1.6,1.3,2.2,0.4,3.3
		c-3.7,4.9-12.7,16.7-21.1,27.7c4.7-14.3,4.7-26.2,2.4-35.8c-0.6-2.6-1.4-5-2.3-7.3c-0.3-0.7-0.6-1.5-0.9-2.1
		c-0.2-0.6-0.5-1.1-0.8-1.6c-0.2-0.5-0.5-1-0.7-1.4c-1.3-2.5-2.8-4.8-4.3-6.8c-3.4-4.3-7.7-8.5-13-12.5c-20.3-15.6-37.1-12-48.3,2.6
		c-13.9,18.1-1.1,39.6,11.7,62c13.5,23.3,27,47.4,12,67c-16.9,22-46.7,19.9-70.1,2c-18.5-14.2-27.9-25.2-36.6-35.7
		c-0.4-0.5-0.7-1-0.9-1.4l19.1-24.9c0,0,0,0,0,0.1c-3.1,9.3-3.3,17.7-2,25.1c3.2,17.6,15.3,29.4,19.9,33.5c0.4,0.3,0.7,0.6,0.9,0.8
		c0.6,0.5,0.9,0.7,0.9,0.7c22.5,17.3,39.7,13.7,50.4-0.4c13.6-17.7,0.5-40.1-12.4-62.6C305.1,1064,292.1,1040.8,307.4,1020.9z"/>
	<path class="st0" d="M203.1,925.4c19.6-14.9,44-16.5,64.3-8.6c11.4,4.4,21.5,11.7,28.8,21.3c6.2,8.2,9.1,16.9,10.1,24.7l54.3-41.4
		l10.7,14.1L228,1044.8l-10.7-14.1l14.9-11.4c-17.2-0.9-33.1-8.8-42.9-21.7C173.4,976.5,177.6,944.8,203.1,925.4z M220.3,934
		c-21.7,16.5-35.3,45.1-17.8,68c6.9,9.1,19,15.3,31.7,15.9l59-45c0.9-6.6,1.4-14.6,0.1-22.3c-1-6.1-3.1-12.1-7-17.2
		c-4.5-6-9.8-10.2-15.8-12.6C256.6,915.2,239.3,919.4,220.3,934z"/>
	<path class="st0" d="M150.8,776.9c18.6,0.8,38.6,5.4,54.3,16c0.5,0.3,1,0.7,1.4,1c9.5,6.8,17.2,15.7,22,27.4
		c5.3,12.9,6.5,25.3,4.1,36.5c-3.6,17.3-15.6,31.3-33.7,38.7c-30.6,12.5-68.4-3.6-82.7-30.6c0,0-3.8-7.3-4.9-12.2l0,0
		c-1.1-3.9-2.2-9.5-1.8-15.6c0-0.4,0-0.8,0.1-1.1c0-0.5,0.1-0.9,0.1-1.4c0.2-1.6,0.5-3.2,0.9-4.6c0-0.1,0-0.1,0-0.1
		c0.8-3.1,2-5.8,3.5-8.1c0,0,0.1-0.1,0.1-0.2c3.2-5.3,8.4-10.3,16.3-14.3c0.1,0,0.2-0.1,0.4-0.2h0.1c2-0.9,10.5-4.1,15.5,8.1
		l30.2,73.8c2.9-0.8,5.9-1.8,9-3.1c26.5-10.8,37.7-42.4,25.9-71.4c-10.3-25.1-31.5-34.7-60-36.7L150.8,776.9z M175.2,890.3l-25-61.1
		c-1.4-3.5-5.4-5.2-8.9-3.8h-0.1c-8.6,3.6-14,8-17.4,12.6c0,0.1-0.1,0.1-0.1,0.2c-3.2,4.4-4.5,8.9-4.8,13c0,0.2,0,0.5,0,0.7
		c0,0.7,0,1.3,0,2c0.1,3.5,0.9,7.4,2.5,11.5c7,17,20.8,27.4,39.9,26.9c0.1,0,0.2,0,0.4,0c1.6,0,3.2-0.2,4.8-0.4l0,0
		c2.7-0.3,5.7-0.6,7-1.2l0,0C174,890.6,174.6,890.5,175.2,890.3z"/>
	<path class="st0" d="M147.9,650.7c14.5,5.8,28,15.3,37.5,27c7.3,9.1,12.3,19.6,13.5,30.7c1.5,12.9-0.8,24.7-6.2,34.5
		c-8.1,14.9-23.3,25.1-43,27.3c-33.3,3.8-68.4-24.8-72.2-58.6c-1.7-15.2,1.1-27.8,5.5-34.8l16.8,9.7c-4.6,7.7-18.2,15.9-16.2,34.2
		c2.6,22.9,22.5,39.1,53.9,35.6c30.5-3.5,50.5-27.7,47-58.9c-2.5-21.7-14.8-35.6-37.2-44.8c-1-0.3-1.3-1-1.1-1.5
		C146.5,650.6,147.2,650.3,147.9,650.7z"/>
	<path class="st0" d="M41.9,625c-6.7-0.4-12-6-11.6-12.8c0.4-6.7,6.2-12,13-11.7c6.8,0.4,11.8,6.2,11.4,13
		C54.3,620.3,48.7,625.4,41.9,625z M193.2,629.7l-116.9-6.3l0.9-17.7l116.9,6.3L193.2,629.7z"/>
	<path class="st0" d="M208.1,485.8c3.9,7,7.4,15.9,6.1,21.5c-2,8.6-8.9,11.6-19.1,9.3c-5.4-1.2-12.4-3.3-17-4.9
		c8.9,7.1,27.7,33.3,23.4,52.2c-4.2,18.4-18.3,26.9-32.2,23.7c-15-3.4-26.4-21.1-33.2-65.2c-0.1-0.7-0.2-1.5-0.3-2.2l-0.5-3.4
		c-0.1-0.4-0.1-0.7-0.2-1.1c-1.5-8.5-7.9-15.8-16.8-18.2c-0.2-0.1-0.5-0.1-0.7-0.2l-0.5-0.1c-0.4-0.1-0.9-0.2-1.3-0.2
		c-0.1,0-0.2,0-0.2,0c-0.5-0.1-1-0.1-1.5-0.1c-0.1,0-0.2,0-0.3,0l0,0c-0.5,0-1,0-1.5,0c-0.4,0-0.9,0-1.3,0.1c-3.1,0.2-6.2,1-8.9,2.5
		c-0.2,0.1-0.4,0.2-0.7,0.3c-0.7,0.4-1.1,0.6-1.3,0.7c-0.1,0-0.1,0.1-0.1,0.1s-0.1,0-0.1,0.1c-2.4,1.4-4.2,3.2-5.7,5.4
		c-1.7,2.6-3,5.8-3.8,9.5c-0.4,1.6-0.6,3.1-0.7,4.6c0,0.1,0,0.1,0,0.2c-0.1,0.9-0.1,1.8,0,2.7c0.1,3.3,0.8,6.1,2,8.8
		c4.1,9.1,13,14.2,17.2,18.8l-14.4,8.6c-2.9-7.8-6.5-21.8-6.5-35.1c0-0.8-0.4-12.8,4.9-24.4v0.1c5.8-13.2,16.1-21.6,25.6-20.3
		c0.1,0,0.1,0,0.2,0s0.1,0,0.2,0c13.4,1.4,15.8,20.4,15.8,20.4l3.7,20.4c6.4,36.6,11.4,46.1,28.2,49.9c12.2,2.8,24.5-5.8,27.7-19.7
		c3.6-15.6-13.7-36.3-20.7-40.1c0,0-6.2-3.9-4.8-11.8c1.3-7.8,9.4-5.4,9.4-5.4c4.4,1.2,8,2.2,10.5,2.8c12.9,3,19.6,2.8,20.7-2
		c0.4-1.9-0.7-4.5-2.6-7.2L208.1,485.8z"/>
	<path class="st0" d="M134.4,415.9l1.4,0.6c0,0,0.1,0,0.1,0.1c0,0,0.2,0.1,0.6,0.3c9.3,3.9,96.2,40.5,96.2,40.5l-6.7,16.1
		c0,0-76-32-98.3-41.3l-11.6-4.9c-33.3-13.9-51.7-11.5-57.9,3.3c-3.6,8.6-5,17.2-6.5,24L36.3,448c0.3-0.7,0.6-1.4,0.9-2.1
		c9.8-23.4,49.3-40.7,85.1-33.5C125.8,413,134.4,415.9,134.4,415.9z"/>
	<path class="st0" d="M110.3,362.1c-5.9-3.2-8.3-10.6-5.1-16.5c3.2-6,10.8-8.2,16.7-5c6,3.2,8,10.7,4.8,16.6
		C123.5,363.2,116.2,365.4,110.3,362.1z M245.1,431L142,375.4l8.4-15.6l103.1,55.6L245.1,431z"/>
	<path class="st0" d="M304.8,311.3l13.9,10.6l-56.4,73.7l0,0l-2.3,3l-2.6-2L215,271l-17.1,22.4c0,0-13.9,18.5-12.4,39.4l-13.9-10.6
		l54.2-70.9l2.3,1.8l41.6,127.1l-5.9,12.1l5.9-12.1l24.3-31.7C294.1,348.4,306.1,335.3,304.8,311.3L304.8,311.3z"/>
	<path class="st0" d="M392.1,191.9c4.6,18,5.9,38.5,0.3,56.6c-0.2,0.5-0.4,1.1-0.5,1.6c-3.7,11-10,21-19.8,29
		c-10.8,8.8-22.4,13.5-33.8,14.5c-17.6,1.6-34.5-5.9-46.8-21c-20.8-25.7-16.3-66.5,5.4-88c0,0,5.9-5.8,10.2-8.2l0,0
		c3.4-2.2,8.4-4.9,14.4-6.3c0.4-0.1,0.7-0.2,1.1-0.2c0.5-0.1,0.9-0.2,1.4-0.3c1.6-0.3,3.2-0.4,4.7-0.5c0.1,0,0.1,0,0.1,0
		c3.2-0.1,6.1,0.3,8.7,1c0.1,0,0.1,0,0.2,0.1c6,1.5,12.3,5,18.4,11.5c0.1,0.1,0.2,0.2,0.3,0.3l0,0c1.5,1.6,6.9,8.9-3.3,17.1
		l-62,50.3c1.6,2.6,3.5,5.1,5.5,7.7c18,22.2,51.5,23.9,75.9,4.1c21.1-17.1,24.2-40.2,17.8-68L392.1,191.9z M290.5,248l51.3-41.6
		c2.9-2.4,3.4-6.7,1-9.6l0,0c-5.9-7.1-11.7-11.1-17.1-13c-0.1,0-0.1,0-0.2-0.1c-5.1-1.8-9.9-1.7-13.8-0.9c-0.2,0-0.5,0.1-0.7,0.2
		c-0.7,0.2-1.3,0.4-1.9,0.5c-3.4,1.1-6.8,3-10.3,5.7c-14.3,11.6-20.2,27.8-14.3,45.9c0,0.1,0.1,0.2,0.1,0.4c0.5,1.5,1.1,3,1.7,4.5
		l0,0c1,2.5,2.3,5.3,3.1,6.3l0,0C289.8,246.9,290.2,247.5,290.5,248z"/>
	<path class="st0" d="M494.3,4.1l6.8,15.3c-6.8,1.6-15.3,3.1-23.9,6.9c-14.7,6.5-16.7,24.9-2.2,57.9l5.1,11.5
		c9.8,22.1,43.2,97.5,43.2,97.5l-16,7c0,0-3.9-8.9-9.4-21.2c-1.5,7.2-4.3,14-8.1,20c-6.1,9.7-14.7,17.4-24.8,21.9
		c-9.7,4.3-20.3,5-30.3,2.4c-15-3.8-28.8-15.1-36.5-32.7c-15.5-35.1,3.7-74.1,34.4-87.6c11.1-4.9,22-4.2,30.7-2.2
		c-1-2.8-2.6-7.6-3.1-10c-7.8-35.7,8.8-75.5,32-85.8C492.9,4.7,493.6,4.4,494.3,4.1z M496.5,175.8c-8.5-19.1-19.8-44.7-26.4-59.5
		c-11.3-4.7-29.3-11.2-44.3-4.6c-23,10.2-30.1,32.6-16.3,63.9c9.1,20.7,28.7,38.3,50.2,36.9c4.4-0.3,8.8-1.3,13.2-3.3
		c3.9-1.7,7.4-4.2,10.5-7.2C490.4,195.2,495.1,185.6,496.5,175.8z"/>
</g>
</svg>
