<?xml version="1.0" encoding="utf-8"?>
<!-- Generator: Adobe Illustrator 27.6.1, SVG Export Plug-In . SVG Version: 6.00 Build 0)  -->
<svg version="1.1" id="レイヤー_1" xmlns="http://www.w3.org/2000/svg" xmlns:xlink="http://www.w3.org/1999/xlink" x="0px"
	 y="0px" viewBox="0 0 1280 459.8" style="enable-background:new 0 0 1280 459.8;" xml:space="preserve">
<style type="text/css">
	.st0{fill:#F4F4F4;}
</style>
<g>
	<path class="st0" d="M95.5,433.2c30.2-5.7,45.2-26.6,45.2-70.2V43.3l-27.5,1.1c-49.1,0-81.4,49-111,111.3H0L16.8,33.4
		c46.9,4.5,111.7,5.1,132.9,5.1H215c25.1,0,86.5-0.6,133.5-5.1l16.2,122.3h-2.2c-29-61.2-61.3-111.3-111-111.3l-27.5-1.1V363
		c0,45.3,16.8,64.6,45.2,70.2v1.7H95.5V433.2z"/>
	<path class="st0" d="M679.7,0h79.8v271.8h2.2l98.9-137h98.8l-95.7,129.7l105.8,187.4H868.2l-63.4-131.4l-45.2,64.7v66.7h-79.8V0z"
		/>
	<path class="st0" d="M1008.6,333V134.8h82.1v187.4c0,49.3,13.4,66.3,43.6,66.3c25.7,0,58.9-38.9,63.7-64.8V134.8h82.1v317.1h-67
		l-9.3-76.8c0,0-25.5,84.7-99,84.7C1037.7,459.8,1008.6,412.3,1008.6,333z"/>
	<path class="st0" d="M642.9,413.4c-8.9,6.8-16.2,9.1-22.3,9.1c-15.1,0-16.2-22.1-16.2-58.9V254.3c0-71.9-40.2-110.4-124.5-110.4
		c-63.6,0-103.3,33.4-103.3,71.9c0,27.2,17.3,36.2,35.7,36.2c17.9,0,33.5-10.8,33.5-33.4c0-14.2-5.6-21.5-10.1-27.8
		c-3.9-5.1-7.2-9.6-6.7-15.9c1.1-14.7,19-24.4,46.9-24.4c41.9,0,53,32.3,53,76.5v4c0,28.2-26,38.7-56.6,50l-7.2,2.6
		c-26.1,9.3-55.7,17.7-76.6,33.7l-0.7,0.5l-3.3,2.7c-14,12.1-23.1,28.2-23.1,51.5c0,18.8,5.6,34.2,15.6,45.7l0.1,0.1l2.2,2.4
		c14.1,14.5,35.7,22.1,62,22.1c7.9,0,15.4-0.8,22.6-2.3c3.6-0.7,7.2-1.7,10.6-2.9c17.6-5.9,32.4-17,43.6-33.4
		c2.8-4.1,5.4-8.4,7.7-13.2c1.1-2.2,2.1-4.4,3.1-6.7v10.8c0,4.7,0.5,9.1,1.4,13.1c5.3,23.5,25,35,48.9,35c22.3,0,45.2-9.1,65.9-26.1
		L642.9,413.4z M520.2,384.5c-0.1,0.1-0.1,0.2-0.1,0.3c-1.9,6.4-4.9,12.2-8.8,17.5c-8.1,10.9-19.9,18.8-33.7,21.8
		c-4,0.9-8.1,1.4-12.3,1.4c-1.6,0-3.2-0.1-4.7-0.2c-16.3-1.3-30.6-9.5-40.2-21.6h0c-3.2-4-5.9-8.5-7.9-13.4
		c-2.9-6.8-4.5-14.3-4.5-22.2c0-9.6,1.4-18.1,3.9-25.7c1.6-4.8,3.6-9.3,6-13.5c10.5-18.4,28.2-30.7,46.7-40.3
		c2.7-1.4,5.5-2.8,8.2-4.1c23-10.9,45.7-18.4,56.2-29v84.1C528.9,357.2,525.6,372.3,520.2,384.5z"/>
</g>
</svg>
