<svg width="294" height="5677" viewBox="0 0 294 5677" fill="none" xmlns="http://www.w3.org/2000/svg">
<path d="M94.4001 317.503C72.6401 317.503 67.2001 317.503 67.2001 337.023L64.0001 337.023L64.0001 272.382L67.2001 272.382C67.2001 295.102 72.6401 295.102 94.4001 295.102L180.48 295.103C208.96 295.103 219.2 279.743 219.2 259.263C219.2 232.383 201.28 213.183 176.96 201.023L94.4001 201.023C72.6401 201.023 67.2001 201.023 67.2001 223.742L64.0001 223.742L64.0001 159.102L67.2001 159.102C67.2001 178.622 72.6401 178.622 94.4001 178.622L259.84 178.622C274.24 178.622 283.52 178.623 284.16 156.223L284.16 103.103L99.5201 103.102C73.2801 103.102 67.8401 103.102 67.2001 132.862L64.0001 132.862L64.0001 49.0225L67.2001 49.0225C67.8401 78.7825 73.2801 78.7825 99.5201 78.7825L284.16 78.7825L284.16 51.9025C284.16 16.7025 259.84 5.8225 204.48 3.2625L204.48 0.0624961L288 1.3425L288 201.023L223.36 201.023L183.04 200.383C210.88 215.423 226.56 238.783 226.56 267.583C226.56 294.783 211.52 317.503 178.88 317.503L94.4001 317.503Z" fill="#F4F4F4"/>
<path d="M117.12 507.153L117.12 510.353C88.3201 510.033 60.8001 490.832 60.8001 446.672C60.8001 407.952 93.4401 371.152 143.68 371.152C194.24 371.152 226.56 402.832 226.56 442.832C226.56 484.432 197.12 510.033 149.12 510.033L149.12 395.793L143.68 395.793C94.4001 395.793 65.2801 414.992 65.2801 451.472C65.2801 487.312 88.9601 506.833 117.12 507.153ZM222.72 442.832C222.72 410.832 198.72 397.393 152.32 395.793L152.32 485.712C192.96 485.392 222.72 476.112 222.72 442.832Z" fill="#F4F4F4"/>
<path d="M288 739.77C288 785.53 274.56 822.65 225.6 822.65C176.32 822.65 162.24 785.53 162.24 739.77L162.24 693.69L99.5201 693.69C73.2801 693.69 67.8401 693.69 67.2001 731.45L64.0001 731.45L64.0001 642.17L67.2001 642.17C67.8401 669.69 73.2801 669.69 99.5201 669.69L252.48 669.69C278.72 669.69 284.16 669.69 284.8 642.17L288 642.17L288 739.77ZM166.08 739.77C166.08 783.29 182.08 795.77 225.6 795.77C268.8 795.77 284.16 783.29 284.16 739.77L284.16 719.61C284.16 693.69 279.04 693.69 253.12 693.69L166.08 693.69L166.08 739.77Z" fill="#F4F4F4"/>
<path d="M94.4001 1008.67C72.3201 1008.67 67.2001 1008.67 67.2001 1027.87L64.0001 1027.87L64.0001 987.235L104 987.235C76.8001 972.195 60.8001 947.555 60.8001 919.395C60.8001 892.195 75.5201 870.115 107.84 870.115L192.96 870.115C215.04 870.115 220.16 870.115 220.16 850.595L223.36 850.595L223.36 892.195L106.24 892.195C77.7601 892.195 67.5201 906.915 67.5201 927.075C67.5201 954.275 86.0801 974.755 110.08 986.915L193.28 986.915C214.4 986.915 220.16 986.915 220.16 954.915L223.36 954.915L223.36 1008.67L94.4001 1008.67Z" fill="#F4F4F4"/>
<path d="M226.56 1161.49C226.56 1186.77 210.24 1197.33 193.6 1197.33C179.52 1197.33 168 1189.33 168 1179.41C168 1173.33 172.48 1165.65 177.28 1163.73C188.8 1174.29 198.4 1179.73 206.72 1179.73C219.2 1179.73 221.76 1168.21 221.76 1159.25C221.76 1133.01 198.4 1113.17 161.28 1104.85L94.4001 1104.85C72.3201 1104.85 67.2001 1104.85 67.2001 1133.01L64.0001 1133.01L64.0001 1062.93L67.2001 1062.93C67.2001 1082.45 72.3201 1082.45 94.4001 1082.45L192.96 1082.45C207.36 1082.45 218.24 1082.45 220.16 1060.05L223.36 1060.05L223.36 1104.85L172.16 1104.53C208.96 1114.77 226.56 1137.49 226.56 1161.49Z" fill="#F4F4F4"/>
<path d="M60.8001 1299.45C60.8001 1279.93 67.2001 1265.85 72.6401 1257.21C80.0001 1246.01 84.8001 1242.49 84.8001 1238.97C84.8001 1233.85 73.9201 1232.25 60.8001 1231.29L60.8001 1228.41L135.36 1229.69L135.36 1232.57C84.4801 1233.21 64.6401 1267.13 64.64 1299.45C64.64 1314.17 67.84 1327.61 74.88 1335.61C79.36 1340.41 85.76 1343.93 95.04 1343.93C121.92 1343.93 128 1319.61 136.64 1286.65C144.64 1254.33 152.32 1231.61 180.16 1231.61C194.56 1231.61 206.4 1238.01 214.4 1249.21C222.72 1261.69 226.24 1276.41 226.24 1290.17C226.24 1311.61 217.92 1324.73 212.16 1332.73C207.36 1338.81 203.2 1342.33 203.2 1344.89C203.2 1349.05 208.32 1349.37 226.24 1349.69L226.24 1352.89L161.6 1354.17L161.6 1350.97C183.68 1349.05 222.72 1334.65 222.72 1290.17C222.72 1278.33 219.84 1266.49 213.76 1256.57C209.28 1249.85 202.56 1243.77 192 1243.77C170.88 1243.77 163.84 1267.13 157.12 1294.65C148.8 1329.85 140.8 1360.25 106.88 1360.25C89.6001 1360.25 78.08 1351.93 70.72 1339.77C65.28 1331.13 60.8001 1317.37 60.8001 1299.45Z" fill="#F4F4F4"/>
<path d="M94.4 1553.86C72.32 1553.86 67.2 1553.86 67.2 1573.06L64 1573.06L64 1532.42L104 1532.42C76.8 1517.38 60.8 1492.74 60.8 1464.58C60.8 1437.38 75.5201 1415.3 107.84 1415.3L192.96 1415.3C215.04 1415.3 220.16 1415.3 220.16 1395.78L223.36 1395.78L223.36 1437.38L106.24 1437.38C77.76 1437.38 67.52 1452.1 67.52 1472.26C67.52 1499.46 86.08 1519.94 110.08 1532.1L193.28 1532.1C214.4 1532.1 220.16 1532.1 220.16 1500.1L223.36 1500.1L223.36 1553.86L94.4 1553.86Z" fill="#F4F4F4"/>
<path d="M257.6 1639.16C257.6 1629.24 265.28 1621.56 275.2 1621.56C285.44 1621.56 293.12 1629.24 293.12 1639.16C293.12 1649.72 285.44 1657.4 275.2 1657.4C265.28 1657.4 257.6 1649.72 257.6 1639.16ZM64 1669.87L64 1608.75L67.2 1608.75C67.2 1628.27 72.32 1628.28 94.4 1628.28L192.96 1628.28C207.36 1628.28 218.24 1628.27 220.16 1605.87L223.36 1605.87L223.36 1650.68L94.4 1650.68C72.32 1650.68 67.2 1650.67 67.2 1669.87L64 1669.87Z" fill="#F4F4F4"/>
<path d="M219.84 1782.48L220.16 1744.08L111.04 1744.08C97.6 1744.08 85.76 1745.05 79.04 1747.29C73.92 1749.21 70.08 1753.04 70.08 1760.72C70.08 1767.76 73.28 1772.89 79.04 1775.77C85.76 1778.97 97.28 1779.29 111.68 1779.29L128.96 1779.29L128.96 1782.48L111.68 1782.48C95.36 1782.48 81.92 1782.17 73.6 1777.05C64.64 1771.61 60.8 1763.61 60.8 1751.77C60.8 1739.93 65.6 1731.92 73.6 1728.08C81.6 1723.92 93.44 1722 117.76 1722L220.16 1722.01L220.16 1701.53L223.36 1701.53L223.36 1710.81C223.36 1732.57 241.92 1737.68 281.6 1740.24L281.6 1744.08L223.36 1744.08L223.68 1782.48L219.84 1782.48Z" fill="#F4F4F4"/>
<path d="M60.8 1988.87C60.8 1952.07 93.12 1912.07 143.68 1912.07C194.24 1912.07 226.56 1952.07 226.56 1988.87C226.56 2026 194.24 2066 143.68 2066C93.12 2066 60.8 2026 60.8 1988.87ZM64.64 1988.87C64.64 2021.51 93.12 2041.35 143.68 2041.35C194.24 2041.35 222.72 2021.51 222.72 1988.87C222.72 1956.55 194.24 1936.71 143.68 1936.71C93.12 1936.71 64.64 1956.55 64.64 1988.87Z" fill="#F4F4F4"/>
<path d="M291.52 2167.36C291.52 2185.6 280.96 2202.25 261.76 2202.25C248.64 2202.25 241.92 2195.85 241.92 2186.89C241.92 2180.49 246.08 2174.08 250.88 2171.52C259.84 2180.48 267.2 2185.6 274.88 2185.6C282.56 2185.6 287.68 2179.21 287.68 2167.69C287.68 2147.53 273.28 2144.32 245.12 2144.32L223.36 2144.32L223.68 2174.73L219.84 2174.73L220.16 2144.32L94.4 2144.32C72.32 2144.32 67.2 2144.32 67.2 2172.8L64 2172.8L64 2102.73L67.2 2102.73C67.2 2122.57 72.32 2122.56 94.4 2122.56L220.16 2122.56L220.16 2102.73L223.36 2102.73L223.36 2122.56L240.64 2122.56C272.64 2122.56 291.52 2139.2 291.52 2167.36Z" fill="#F4F4F4"/>
<path d="M122.56 2456.76L122.56 2459.96L92.16 2459.96C80.64 2459.96 75.2 2458.68 70.72 2456.12C67.2 2453.88 61.12 2448.44 61.12 2437.24C61.12 2426.68 65.6 2421.24 69.44 2418.68C73.28 2415.8 78.72 2413.88 91.84 2413.88L107.84 2413.88C95.04 2409.08 60.8 2391.8 60.8 2351.48C60.8 2335.48 64.64 2323.96 72.64 2315.32C80 2307.32 90.88 2303.8 102.08 2303.8C114.56 2303.8 122.56 2307.64 129.28 2315.32C144.96 2333.24 154.88 2377.4 161.28 2413.88L181.44 2413.88C217.6 2413.88 223.04 2392.12 223.04 2373.56C223.04 2356.92 218.56 2344.12 210.24 2336.12C208 2333.56 205.76 2332.28 201.92 2332.28C194.24 2332.28 184.32 2337.72 172.48 2348.92C167.04 2346.68 162.88 2339.64 162.88 2332.6C162.88 2322.68 174.4 2315 186.56 2315C205.44 2315 226.56 2334.52 226.56 2374.52C226.56 2408.12 213.76 2435.64 178.56 2435.64L91.84 2435.64C84.8 2435.64 79.68 2436.28 76.16 2437.56C73.28 2439.16 70.4 2441.72 70.4 2445.88C70.4 2451.32 74.24 2453.88 76.16 2454.84C79.04 2456.44 83.84 2456.76 92.16 2456.76L122.56 2456.76ZM69.12 2359.48C69.12 2389.24 95.68 2411 123.84 2413.88L158.4 2413.88C150.4 2377.4 141.76 2344.12 124.48 2332.6C119.04 2328.76 112 2327.8 104 2327.8C95.68 2327.8 88.64 2328.76 81.92 2332.6C74.88 2336.76 69.12 2345.08 69.12 2359.48Z" fill="#F4F4F4"/>
<path d="M61.12 2680.75C61.12 2654.83 71.04 2638.19 78.4 2627.63C84.8 2618.67 90.24 2612.91 90.24 2608.43C90.24 2603.95 85.44 2601.39 61.12 2600.75L61.12 2597.55L153.6 2596.27L153.6 2599.47C118.72 2602.35 64.96 2621.87 64.96 2680.75C64.96 2696.11 67.84 2716.91 82.24 2730.35C91.2 2738.35 102.4 2740.27 113.6 2740.27C144.96 2740.27 158.08 2712.75 170.88 2673.71C181.76 2642.35 192 2600.11 232.32 2600.11C248 2600.11 261.12 2606.19 271.04 2616.75C284.8 2630.51 290.88 2650.67 290.88 2671.79C290.88 2696.43 280.32 2712.75 273.6 2721.39C265.6 2731.31 261.76 2735.15 261.76 2739.31C261.76 2743.79 266.56 2746.67 290.88 2746.99L290.88 2750.19L201.92 2751.47L201.92 2748.27C235.2 2745.39 287.04 2725.87 287.04 2671.79C287.04 2655.47 283.2 2641.39 275.52 2632.43C268.48 2624.11 258.56 2619.31 246.4 2619.31C217.6 2619.31 208.96 2644.27 196.16 2681.39C181.76 2723.95 168.64 2758.83 127.68 2758.83C109.12 2758.83 93.12 2752.75 81.28 2739.31C69.12 2725.87 61.12 2708.27 61.12 2680.75Z" fill="#F4F4F4"/>
<path d="M226.56 2903.28C226.56 2942.96 193.92 2968.88 148.48 2968.88C102.08 2968.88 60.8 2942.96 60.8 2893.04C60.8 2867.44 74.88 2848.56 96 2840.88L32 2841.2C10.56 2841.2 5.11999 2841.2 5.11999 2867.76L1.91998 2867.76L1.91998 2798.64L5.11999 2798.64C5.11999 2818.48 10.88 2818.48 32.32 2818.48L192.96 2818.48C207.36 2818.48 218.24 2818.48 220.16 2796.08L223.36 2796.08L223.36 2841.2L179.2 2840.56C212.16 2854.64 226.56 2877.36 226.56 2903.28ZM64.96 2890.8C64.96 2917.68 79.36 2944.24 148.16 2944.24C180.48 2944.24 221.76 2939.44 221.76 2899.12C221.76 2874.8 205.76 2854 172.16 2840.88L117.76 2840.88C90.88 2840.88 64.96 2858.48 64.96 2890.8Z" fill="#F4F4F4"/>
<path d="M117.12 3144.47L117.12 3147.67C88.32 3147.35 60.8 3128.15 60.8 3083.99C60.8 3045.27 93.44 3008.47 143.68 3008.47C194.24 3008.47 226.56 3040.15 226.56 3080.15C226.56 3121.75 197.12 3147.34 149.12 3147.34L149.12 3033.1L143.68 3033.1C94.4 3033.1 65.28 3052.3 65.28 3088.78C65.28 3124.62 88.96 3144.15 117.12 3144.47ZM222.72 3080.15C222.72 3048.15 198.72 3034.7 152.32 3033.1L152.32 3123.02C192.96 3122.7 222.72 3113.43 222.72 3080.15Z" fill="#F4F4F4"/>
<path d="M65.6 3268.56C65.6 3300.88 88.96 3320.08 117.12 3322.64L117.12 3325.84C88.32 3323.6 61.12 3303.12 61.12 3263.76C61.12 3222.48 93.44 3186.96 143.68 3186.96C193.92 3186.96 226.24 3221.2 226.24 3265.68C226.24 3301.84 203.52 3323.28 182.4 3323.28C168.32 3323.28 155.84 3314.32 155.84 3303.76C155.84 3297.04 160 3290.96 165.44 3288.4C177.92 3299.92 189.76 3306.64 198.4 3306.64C201.92 3306.64 206.08 3305.04 208.96 3302.16C218.56 3293.52 222.4 3280.72 222.4 3266.32C222.4 3226.96 192 3211.6 143.68 3211.6C97.28 3211.6 65.6 3227.92 65.6 3268.56Z" fill="#F4F4F4"/>
<path d="M257.6 3393.03C257.6 3383.11 265.28 3375.43 275.2 3375.43C285.44 3375.43 293.12 3383.11 293.12 3393.03C293.12 3403.59 285.44 3411.27 275.2 3411.27C265.28 3411.27 257.6 3403.59 257.6 3393.03ZM64 3423.75L64 3362.63L67.2 3362.63C67.2 3382.15 72.32 3382.15 94.4 3382.15L192.96 3382.15C207.36 3382.15 218.24 3382.15 220.16 3359.75L223.36 3359.75L223.36 3404.55L94.4 3404.55C72.32 3404.55 67.2 3404.55 67.2 3423.75L64 3423.75Z" fill="#F4F4F4"/>
<path d="M122.56 3612.2L122.56 3615.4L92.16 3615.4C80.64 3615.4 75.1999 3614.12 70.72 3611.56C67.2 3609.32 61.12 3603.88 61.12 3592.68C61.12 3582.12 65.6 3576.68 69.44 3574.12C73.28 3571.24 78.72 3569.32 91.84 3569.32L107.84 3569.32C95.04 3564.52 60.8 3547.24 60.8 3506.92C60.8 3490.92 64.64 3479.4 72.64 3470.76C80 3462.76 90.88 3459.24 102.08 3459.24C114.56 3459.24 122.56 3463.08 129.28 3470.76C144.96 3488.68 154.88 3532.84 161.28 3569.32L181.44 3569.32C217.6 3569.32 223.04 3547.56 223.04 3529C223.04 3512.36 218.56 3499.56 210.24 3491.56C208 3489 205.76 3487.72 201.92 3487.72C194.24 3487.72 184.32 3493.16 172.48 3504.36C167.04 3502.12 162.88 3495.08 162.88 3488.04C162.88 3478.12 174.4 3470.44 186.56 3470.44C205.44 3470.44 226.56 3489.96 226.56 3529.96C226.56 3563.56 213.76 3591.08 178.56 3591.08L91.84 3591.08C84.8 3591.08 79.68 3591.72 76.16 3593C73.28 3594.6 70.4 3597.16 70.4 3601.32C70.4 3606.76 74.24 3609.32 76.16 3610.28C79.04 3611.88 83.84 3612.2 92.16 3612.2L122.56 3612.2ZM69.12 3514.92C69.12 3544.68 95.68 3566.44 123.84 3569.32L158.4 3569.32C150.4 3532.84 141.76 3499.56 124.48 3488.04C119.04 3484.2 112 3483.24 104 3483.24C95.68 3483.24 88.64 3484.2 81.92 3488.04C74.88 3492.2 69.12 3500.52 69.12 3514.92Z" fill="#F4F4F4"/>
<path d="M63.9999 3711.02L63.9999 3649.58L67.1999 3649.58C67.1999 3669.1 72.32 3669.1 94.4 3669.1L260.48 3669.1C274.88 3669.1 284.16 3669.11 284.8 3646.71L288 3646.71L288 3691.5L94.4 3691.5C72.32 3691.5 67.1999 3691.82 67.1999 3711.02L63.9999 3711.02Z" fill="#F4F4F4"/>
<path d="M257.6 3777.28C257.6 3767.36 265.28 3759.68 275.2 3759.68C285.44 3759.68 293.12 3767.36 293.12 3777.28C293.12 3787.84 285.44 3795.52 275.2 3795.52C265.28 3795.52 257.6 3787.84 257.6 3777.28ZM63.9999 3808L63.9999 3746.88L67.1999 3746.88C67.1999 3766.4 72.3199 3766.4 94.4 3766.4L192.96 3766.4C207.36 3766.4 218.24 3766.4 220.16 3744L223.36 3744L223.36 3788.8L94.4 3788.8C72.3199 3788.8 67.1999 3788.8 67.1999 3808L63.9999 3808Z" fill="#F4F4F4"/>
<path d="M63.9999 3841.89L66.8799 3841.89L220.16 3946.21L220.16 3895.33C220.16 3861.73 201.6 3855.33 163.2 3851.81L163.2 3848.93L223.36 3852.13L223.36 3972.13L220.16 3972.13L66.8799 3868.13L66.8799 3925.09C66.8799 3960.93 83.8399 3967.65 132.16 3972.13L132.16 3975.33L63.9999 3970.85L63.9999 3841.89Z" fill="#F4F4F4"/>
<path d="M117.12 4150.21L117.12 4153.42C88.3199 4153.1 60.7999 4133.89 60.7999 4089.73C60.7999 4051.01 93.4399 4014.22 143.68 4014.22C194.24 4014.22 226.56 4045.9 226.56 4085.9C226.56 4127.5 197.12 4153.1 149.12 4153.1L149.12 4038.85L143.68 4038.85C94.3999 4038.85 65.2799 4058.06 65.2799 4094.54C65.2799 4130.38 88.9599 4149.89 117.12 4150.21ZM222.72 4085.9C222.72 4053.9 198.72 4040.45 152.32 4038.85L152.32 4128.77C192.96 4128.45 222.72 4119.18 222.72 4085.9Z" fill="#F4F4F4"/>
<path d="M94.3999 4343.43C72.3199 4343.43 67.1999 4343.43 67.1999 4362.63L63.9999 4362.63L63.9999 4321.35L106.88 4321.35C74.8799 4307.59 60.7999 4285.19 60.7999 4258.95C60.7999 4218.95 95.6799 4193.03 141.44 4193.03C187.84 4193.03 226.56 4220.23 226.56 4266.95C226.56 4296.39 211.52 4314.31 190.08 4321.67L260.8 4321.35C275.2 4321.35 284.16 4321.35 284.8 4287.43L288 4287.43L288 4343.43L94.3999 4343.43ZM65.5999 4263.43C65.5999 4288.39 80.9599 4308.23 116.16 4321.35L169.6 4321.35C196.48 4321.35 222.4 4304.39 222.4 4268.87C222.4 4244.55 209.28 4217.67 141.76 4217.67C108.8 4217.67 65.5999 4223.43 65.5999 4263.43Z" fill="#F4F4F4"/>
<path d="M63.9999 4489.63L67.1999 4489.63C67.8399 4518.75 73.2799 4518.75 99.5199 4518.75L252.48 4518.75C278.72 4518.75 284.16 4518.75 284.8 4489.63L288 4489.63L288 4571.87L284.8 4571.87C284.16 4542.75 278.72 4542.75 252.48 4542.75L99.5199 4542.75C73.2799 4542.75 67.8399 4542.75 67.1999 4571.87L63.9999 4571.87L63.9999 4489.63Z" fill="#F4F4F4"/>
<path d="M94.3999 4754.24C72.3199 4754.24 67.1999 4754.24 67.1999 4773.44L63.9999 4773.44L63.9999 4732.16L106.88 4732.16C74.8799 4718.4 60.7999 4696 60.7999 4669.76C60.7999 4629.76 95.6799 4603.84 141.44 4603.84C187.84 4603.84 226.56 4631.04 226.56 4677.76C226.56 4707.2 211.52 4725.12 190.08 4732.48L260.8 4732.16C275.2 4732.16 284.16 4732.16 284.8 4698.24L288 4698.24L288 4754.24L94.3999 4754.24ZM65.5999 4674.24C65.5999 4699.2 80.9599 4719.04 116.16 4732.16L169.6 4732.16C196.48 4732.16 222.4 4715.2 222.4 4679.68C222.4 4655.36 209.28 4628.48 141.76 4628.48C108.8 4628.48 65.5999 4634.24 65.5999 4674.24Z" fill="#F4F4F4"/>
<path d="M117.12 4945.84L117.12 4949.04C88.3199 4948.72 60.7999 4929.52 60.7999 4885.36C60.7999 4846.64 93.4399 4809.84 143.68 4809.84C194.24 4809.84 226.56 4841.52 226.56 4881.52C226.56 4923.12 197.12 4948.72 149.12 4948.72L149.12 4834.48L143.68 4834.48C94.3999 4834.48 65.2799 4853.68 65.2799 4890.16C65.2799 4926 88.9599 4945.52 117.12 4945.84ZM222.72 4881.52C222.72 4849.52 198.72 4836.08 152.32 4834.48L152.32 4924.4C192.96 4924.08 222.72 4914.8 222.72 4881.52Z" fill="#F4F4F4"/>
<path d="M94.3999 5145.45C72.6399 5145.45 67.1999 5145.45 67.1999 5164.97L63.9999 5164.97L63.9999 5100.33L67.1999 5100.33C67.1999 5123.37 72.6399 5123.37 94.3999 5123.37L180.48 5123.37C208.96 5123.37 219.2 5107.69 219.2 5087.53C219.2 5060.33 201.28 5041.13 176.96 5028.97L94.3999 5028.97C72.6399 5028.97 67.1999 5028.97 67.1999 5051.69L63.9999 5051.69L63.9999 4987.05L67.1999 4987.05C67.1999 5006.57 72.6399 5006.57 94.3999 5006.57L192.96 5006.57C207.36 5006.57 218.24 5006.57 220.16 4984.17L223.36 4984.17L223.36 5028.97L183.68 5028.65C210.88 5043.69 226.56 5067.05 226.56 5095.53C226.56 5122.73 211.52 5145.45 178.88 5145.45L94.3999 5145.45Z" fill="#F4F4F4"/>
<path d="M219.84 5274.86L220.16 5236.46L111.04 5236.46C97.5999 5236.46 85.7599 5237.42 79.0399 5239.66C73.9199 5241.58 70.0799 5245.42 70.0799 5253.1C70.0799 5260.14 73.2799 5265.26 79.0399 5268.14C85.7599 5271.34 97.2799 5271.66 111.68 5271.66L128.96 5271.66L128.96 5274.86L111.68 5274.86C95.3599 5274.86 81.9199 5274.54 73.5999 5269.42C64.6399 5263.98 60.7999 5255.98 60.7999 5244.14C60.7999 5232.3 65.5999 5224.3 73.5999 5220.46C81.5999 5216.3 93.4399 5214.38 117.76 5214.38L220.16 5214.38L220.16 5193.9L223.36 5193.9L223.36 5203.18C223.36 5224.94 241.92 5230.06 281.6 5232.62L281.6 5236.46L223.36 5236.46L223.68 5274.86L219.84 5274.86Z" fill="#F4F4F4"/>
<path d="M257.6 5340.4C257.6 5330.48 265.28 5322.81 275.2 5322.81C285.44 5322.81 293.12 5330.48 293.12 5340.4C293.12 5350.96 285.44 5358.65 275.2 5358.65C265.28 5358.65 257.6 5350.96 257.6 5340.4ZM63.9999 5371.12L63.9999 5310L67.1999 5310C67.1999 5329.52 72.3199 5329.52 94.3999 5329.52L192.96 5329.52C207.36 5329.52 218.24 5329.52 220.16 5307.12L223.36 5307.12L223.36 5351.92L94.3999 5351.92C72.3199 5351.92 67.1999 5351.92 67.1999 5371.12L63.9999 5371.12Z" fill="#F4F4F4"/>
<path d="M219.84 5483.73L220.16 5445.33L111.04 5445.33C97.5999 5445.33 85.7599 5446.3 79.0399 5448.54C73.9199 5450.46 70.0799 5454.3 70.0799 5461.98C70.0799 5469.02 73.2799 5474.14 79.0399 5477.02C85.7599 5480.22 97.2799 5480.54 111.68 5480.54L128.96 5480.54L128.96 5483.73L111.68 5483.73C95.3599 5483.73 81.9199 5483.41 73.5999 5478.29C64.6399 5472.85 60.7999 5464.86 60.7999 5453.02C60.7999 5441.18 65.5999 5433.17 73.5999 5429.33C81.5999 5425.17 93.4399 5423.25 117.76 5423.25L220.16 5423.25L220.16 5402.77L223.36 5402.77L223.36 5412.06C223.36 5433.82 241.92 5438.94 281.6 5441.5L281.6 5445.33L223.36 5445.33L223.68 5483.73L219.84 5483.73Z" fill="#F4F4F4"/>
<path d="M36.7999 5581.67C6.39986 5569.51 -0.000120763 5555.44 -0.000120259 5543.92C-0.000119518 5526.96 12.4798 5514.48 30.3998 5514.48C44.7998 5514.48 56.9599 5522.79 56.6399 5532.71C56.3199 5539.43 52.1599 5546.48 46.7199 5548.4C34.8799 5536.24 23.9999 5528.87 15.3599 5529.19C7.67986 5529.51 3.51984 5535.6 3.51984 5544.56C3.51984 5553.84 8.31987 5566.63 37.1199 5578.15L62.0799 5588.4L182.4 5538.79C212.16 5526.63 220.16 5523.12 220.16 5502L223.36 5502L223.36 5578.48L220.16 5578.48C220.16 5548.08 211.2 5550.96 182.4 5562.48L89.9199 5599.27L183.04 5636.08C204.8 5645.04 220.16 5650.79 220.16 5613.35L223.36 5613.35L223.36 5676.71L220.16 5676.71C220.16 5654.95 205.76 5649.2 183.04 5639.92L36.7999 5581.67Z" fill="#F4F4F4"/>
</svg>
